<?xml version="1.0" standalone="no"?>
<!DOCTYPE svg PUBLIC "-//W3C//DTD SVG 20010904//EN"
 "http://www.w3.org/TR/2001/REC-SVG-20010904/DTD/svg10.dtd">
<svg version="1.0" xmlns="http://www.w3.org/2000/svg"
 width="2000.000000pt" height="2000.000000pt" viewBox="0 0 2000.000000 2000.000000"
 preserveAspectRatio="xMidYMid meet">
<metadata>
Created by potrace 1.14, written by Peter Selinger 2001-2017
</metadata>
<g transform="translate(0.000000,2000.000000) scale(0.100000,-0.100000)"
fill="#000000" stroke="none">
<path d="M2802 12104 c-84 -22 -156 -62 -216 -121 -96 -95 -139 -199 -138
-338 1 -192 121 -358 308 -427 81 -30 213 -29 303 1 145 50 275 194 297 330 6
39 8 41 43 42 20 0 198 1 395 2 l360 2 64 -95 c256 -375 280 -407 309 -417 16
-4 461 -8 990 -7 915 1 964 2 983 19 26 23 26 67 0 90 -19 17 -68 18 -969 19
-619 1 -953 4 -959 11 -6 6 -63 87 -127 180 -188 272 -219 314 -235 318 -8 2
-193 4 -410 5 -217 1 -405 1 -417 2 -18 0 -23 8 -29 38 -16 93 -86 197 -181
270 -91 71 -259 105 -371 76z m226 -139 c53 -19 143 -95 170 -144 69 -122 53
-282 -40 -385 -73 -82 -148 -114 -260 -112 -238 5 -394 259 -288 471 34 69 51
90 100 127 85 65 211 82 318 43z"/>
<path d="M3915 10870 c-203 -42 -358 -228 -364 -436 -10 -316 285 -545 589
-458 152 44 268 163 314 324 l16 55 992 -1 c546 0 1004 4 1018 8 45 16 54 64
20 98 -20 20 -33 20 -1025 20 -796 0 -1006 3 -1009 13 -31 101 -42 130 -71
174 -69 104 -162 171 -275 197 -66 15 -150 18 -205 6z m235 -153 c255 -122
257 -474 3 -603 -50 -25 -69 -29 -143 -29 -70 0 -94 4 -135 25 -222 109 -264
382 -85 557 86 84 243 106 360 50z"/>
<path d="M16989 10771 c0 -8 -1 -1769 0 -1808 l1 -31 83 1 82 2 0 112 c0 61 3
114 6 118 4 3 14 -6 23 -20 51 -78 170 -163 277 -197 92 -29 254 -35 348 -14
312 71 504 324 502 660 -2 255 -123 464 -331 574 -102 54 -191 75 -320 75
-123 0 -211 -22 -305 -78 -59 -35 -175 -146 -175 -168 0 -9 -2 -9 -8 0 -4 6
-7 181 -7 388 0 244 -3 379 -10 383 -13 8 -165 10 -166 3z m830 -710 c229 -80
355 -325 305 -592 -38 -200 -186 -353 -371 -385 -335 -57 -595 166 -587 503 2
108 8 138 39 215 55 135 159 228 305 272 70 21 231 14 309 -13z"/>
<path d="M5918 10682 c-26 -3 -26 -4 -25 -75 l2 -72 318 -3 317 -2 1 -418 c1
-768 1 -760 -33 -855 -27 -76 -89 -139 -160 -163 -54 -18 -174 -23 -233 -10
-66 15 -142 62 -207 128 l-67 68 -51 -52 c-27 -29 -50 -58 -50 -64 0 -18 60
-87 105 -121 51 -39 147 -90 177 -95 12 -3 -110 -5 -273 -5 -163 0 -303 -4
-312 -9 -13 -8 -117 -166 -117 -179 0 -2 -34 -60 -75 -129 -41 -69 -75 -130
-75 -136 0 -5 -4 -10 -10 -10 -5 0 -10 -6 -10 -12 0 -7 -8 -23 -18 -36 l-18
-23 -729 0 c-402 0 -742 0 -756 0 -23 1 -28 7 -34 38 -14 73 -63 162 -123 222
-185 186 -478 183 -658 -6 -183 -192 -167 -499 37 -668 80 -67 172 -104 270
-109 225 -11 434 149 475 364 3 13 7 26 9 29 3 2 356 4 785 4 704 0 783 1 800
16 16 13 177 281 281 466 l28 50 497 3 c547 2 534 1 534 63 0 40 -24 59 -78
60 -38 1 -42 2 -22 8 88 28 184 113 229 204 62 127 64 144 66 865 1 423 -2
655 -9 659 -10 6 -738 11 -788 5z m-2641 -2037 c69 -34 129 -95 161 -163 23
-49 27 -71 27 -147 0 -81 -3 -95 -29 -142 -36 -65 -101 -127 -164 -156 -72
-33 -198 -31 -272 5 -91 43 -146 105 -178 201 -47 141 12 302 141 384 87 55
221 63 314 18z"/>
<path d="M14107 10682 c-16 -3 -17 -62 -15 -875 l3 -872 575 0 575 0 3 78 3
78 -453 -1 c-249 -1 -469 -1 -488 -1 l-35 1 0 791 c0 477 -3 793 -9 797 -10 6
-132 9 -159 4z"/>
<path d="M7570 10240 c-74 -10 -183 -38 -239 -63 -67 -29 -171 -97 -171 -111
0 -6 16 -37 36 -69 l35 -57 42 29 c112 76 208 108 352 117 273 18 414 -103
411 -351 l-1 -60 -295 -6 c-272 -5 -300 -7 -360 -28 -136 -47 -207 -114 -244
-228 -17 -50 -21 -184 -7 -208 3 -5 7 -18 8 -27 4 -27 59 -111 90 -139 64 -56
167 -101 258 -114 85 -11 209 -6 267 11 9 3 27 7 40 9 48 9 151 70 195 116 26
27 49 46 52 44 2 -3 5 -42 5 -87 l1 -83 83 -1 c77 -1 82 0 82 20 5 311 -2 904
-11 943 -44 182 -186 311 -374 339 -50 8 -205 10 -255 4z m466 -822 c-3 -125
-11 -150 -73 -219 -88 -97 -191 -139 -342 -140 -159 -2 -266 52 -312 157 -35
79 -5 208 58 251 82 55 117 61 419 62 l252 1 -2 -112z"/>
<path d="M8980 10243 c-170 -15 -338 -113 -390 -228 -20 -43 -37 -134 -33
-170 10 -92 44 -158 106 -209 82 -66 123 -80 399 -136 300 -62 347 -97 340
-256 -2 -33 -57 -105 -96 -126 -67 -36 -269 -54 -382 -35 -105 19 -213 58
-286 104 -21 12 -41 23 -45 23 -5 0 -23 -27 -41 -60 -26 -47 -31 -64 -23 -79
19 -34 202 -111 326 -137 17 -3 87 -8 157 -11 379 -15 606 156 565 427 -17
116 -110 210 -242 245 -16 5 -32 9 -35 10 -24 6 -208 46 -255 56 -157 30 -221
56 -269 110 -86 97 -23 252 121 296 62 19 261 24 338 9 49 -10 127 -42 177
-73 21 -13 41 -23 45 -23 10 0 74 121 73 138 0 28 -171 93 -310 117 -41 8
-189 12 -240 8z"/>
<path d="M12049 10246 c-2 -2 -26 -6 -54 -9 -117 -12 -244 -76 -335 -167 -82
-82 -91 -93 -128 -171 -37 -75 -58 -157 -67 -253 -3 -38 -6 -72 -7 -75 0 -3 0
-8 1 -11 1 -3 4 -27 7 -55 11 -122 58 -242 134 -340 40 -51 46 -58 115 -111
148 -116 369 -160 595 -120 94 17 215 77 290 144 l52 47 -40 52 c-23 28 -46
54 -52 58 -6 4 -27 -9 -47 -29 -58 -56 -157 -105 -253 -123 -54 -11 -200 -7
-250 6 -62 17 -130 44 -130 54 0 4 -6 7 -13 7 -8 0 -41 25 -75 56 -72 65 -137
185 -148 272 l-7 52 547 0 546 0 1 33 c5 170 -32 301 -117 423 -92 131 -233
221 -391 250 -31 6 -170 13 -174 10z m166 -168 c119 -26 246 -120 295 -218 25
-51 50 -134 50 -167 l0 -23 -460 0 c-520 0 -472 -9 -446 85 41 154 165 281
315 320 60 16 183 17 246 3z"/>
<path d="M13095 10240 c-5 -10 -2 -1300 4 -1301 3 -1 41 -3 84 -4 53 -1 80 2
83 10 3 6 6 187 8 401 3 368 4 392 24 448 29 79 57 123 111 175 70 68 150 98
274 105 31 2 60 6 63 9 5 5 8 113 5 153 -3 29 -210 -10 -301 -56 -45 -23 -145
-123 -160 -161 -20 -46 -29 -24 -29 64 1 45 1 100 0 123 l-1 40 -81 0 c-44 0
-82 -3 -84 -6z"/>
<path d="M15865 10239 c-114 -16 -172 -33 -270 -78 -97 -46 -147 -85 -138
-109 4 -9 21 -38 38 -65 l32 -47 40 29 c51 37 131 75 208 97 92 28 291 25 365
-4 126 -50 190 -157 190 -319 l0 -73 -262 -1 c-271 -1 -279 -1 -363 -20 -132
-31 -236 -118 -273 -227 -21 -62 -24 -177 -7 -227 50 -145 166 -234 350 -270
38 -7 171 -7 222 1 65 10 141 34 190 62 52 29 133 104 133 123 0 7 3 9 7 5 4
-4 8 -42 8 -84 1 -43 4 -83 8 -89 4 -7 37 -10 84 -10 l78 2 0 455 c0 455 -1
483 -36 580 -48 136 -192 244 -352 266 -66 9 -197 11 -252 3z m465 -822 c0
-110 -1 -115 -31 -163 -82 -129 -209 -194 -379 -195 -119 -1 -220 30 -270 84
-62 65 -81 168 -45 248 23 52 28 57 78 88 72 44 108 49 385 50 l262 2 0 -114z"/>
<path d="M9910 9351 l0 -889 38 -3 c20 -2 60 -2 87 1 l50 5 0 342 c0 188 3
344 6 347 3 3 18 -11 34 -32 93 -123 268 -200 455 -202 72 0 86 1 155 14 244
45 449 263 490 521 10 64 6 244 -5 265 -6 11 -9 20 -6 20 3 0 -2 24 -11 53
-54 186 -211 349 -396 411 -65 22 -106 28 -215 31 -203 6 -367 -66 -484 -213
-16 -19 -28 -29 -29 -21 0 8 -1 64 -2 124 l-2 110 -82 3 -83 3 0 -890z m796
729 c251 -69 392 -325 338 -612 -54 -284 -324 -452 -605 -376 -86 23 -110 35
-178 88 -216 171 -237 556 -43 770 114 126 312 179 488 130z"/>
<path d="M1926 10179 c-121 -19 -264 -127 -318 -240 -39 -81 -50 -123 -52
-201 -10 -286 249 -512 534 -467 115 18 248 105 311 204 21 34 52 99 54 115 7
48 19 70 38 71 12 0 130 1 261 1 l240 1 84 -154 c46 -85 106 -197 134 -249 27
-52 56 -102 64 -110 13 -13 95 -15 606 -15 478 0 594 2 610 13 21 15 26 23
167 252 l96 155 859 0 c817 0 861 1 883 18 27 22 29 48 7 82 l-16 25 -890 0
c-518 0 -896 -4 -906 -9 -10 -5 -74 -99 -142 -210 l-125 -200 -537 -1 -536 0
-100 188 c-155 292 -163 306 -184 325 -18 15 -48 17 -309 17 -186 0 -289 4
-289 10 0 6 0 12 0 15 0 3 -10 31 -22 62 -52 140 -148 236 -280 283 -64 22
-169 31 -242 19z m230 -160 c321 -154 214 -630 -141 -630 -143 0 -271 95 -320
236 -14 41 -14 136 1 187 30 99 85 164 174 206 99 47 190 48 286 1z"/>
</g>
</svg>
